<svg id="Capa_1" enable-background="new 0 0 512 512" height="512" viewBox="0 0 512 512" width="512" xmlns="http://www.w3.org/2000/svg"><g><path d="m368 96.263v22.924h21.894c11.046 0 20 8.954 20 20v13.229h7.11c4.412 0 8.49 1.403 11.839 3.769v-45.784c0-22.209-18.004-40.213-40.213-40.213h-31.716c6.83 6.59 11.086 15.833 11.086 26.075z" fill="#465a61"/><path d="m279.997 152.416h7.11v-13.229c0-11.046 8.954-20 20-20h60.894v-22.924c0-20.014-16.225-36.239-36.239-36.239h-58.603c-2.761 0-5 2.239-5 5v91.16c3.348-2.365 7.425-3.768 11.838-3.768z" fill="#596c76"/><path d="m279.997 152.416h7.11v-13.229c0-8.539 5.361-15.808 12.894-18.677v-55.485c0-2.761 2.239-5 5-5h-31.842c-2.761 0-5 2.239-5 5v91.16c3.348-2.366 7.425-3.769 11.838-3.769z" fill="#465a61"/><path d="m441 261.324h-50.05v43.358c0 2.472-2.822 3.883-4.8 2.4l-32.693-24.521-2.818 2.866c-1.176 1.196-3.103 1.196-4.278 0l-2.818-2.866-32.693 24.521c-1.978 1.483-4.8.072-4.8-2.4v-43.358h-93.103c-2.761 0-5-2.239-5-5v-71.718h-38.947v100.665c0 8.284 6.716 15 15 15h47c5.523 0 10 4.477 10 10v121.917h225v-145.864c0-13.807-11.193-25-25-25z" fill="#99e6fc"/><path d="m297 376.66h84.206v-34.472h-114.156c-2.761 0-5 2.239-5 5v85h31.95v-52.528c0-1.657 1.343-3 3-3z" fill="#fd4755"/><g><path d="m298.1 342.188h-31.05c-2.761 0-5 2.239-5 5v85h31.05v-85c0-2.762 2.239-5 5-5z" fill="#fb2b3a"/></g><path d="m365.806 237.962h-34.612c-1.539 0-3.06-.08-4.559-.234l-20.585 23.596v43.358c0 2.472 2.822 3.883 4.8 2.4l37.65-28.239 37.65 28.239c1.978 1.483 4.8.072 4.8-2.4v-43.358l-20.585-23.596c-1.499.154-3.02.234-4.559.234z" fill="#fff"/><path d="m365.806 237.962h-34.612c-2.92 0-5.77-.291-8.531-.832v20.905c0 2.108.828 4.132 2.306 5.635l21.392 21.757c1.176 1.196 3.103 1.196 4.278 0l21.392-21.757c1.478-1.503 2.306-3.527 2.306-5.635v-20.905c-2.761.541-5.612.832-8.531.832z" fill="#ffbd86"/><g fill="#ffbd86"><path d="m287.106 193.874v-41.458h-7.11c-11.354 0-20.557 9.204-20.557 20.557v7.657c0 11.354 9.204 20.557 20.557 20.557h7.725c-.397-2.379-.615-4.82-.615-7.313z"/><path d="m417.003 152.416h-7.11v41.458c0 2.493-.217 4.933-.615 7.313h7.725c11.354 0 20.557-9.204 20.557-20.557v-7.657c.001-11.353-9.203-20.557-20.557-20.557z"/></g><g><path d="m287.106 139.188v54.687c0 24.349 19.739 44.088 44.088 44.088h34.612c24.349 0 44.088-19.739 44.088-44.088v-54.687c0-11.046-8.954-20-20-20h-82.787c-11.046 0-20.001 8.954-20.001 20z" fill="#fed2a4"/></g><g><g><path d="m490 432.188v-94c0-1.657-1.343-3-3-3h-102.794c-1.657 0-3 1.343-3 3v94z" fill="#faea5e"/></g><path d="m384.206 335.188c-1.657 0-3 1.343-3 3v38.472h13.794c1.657 0 3 1.343 3 3v52.528h16v-94c0-1.657 1.343-3 3-3z" fill="#ffd600"/><g><path d="m421.248 335.188v24c0 1.657 1.343 3 3 3h22.71c1.657 0 3-1.343 3-3v-24z" fill="#fd4755"/></g></g><g><g><path d="m398 432.188v-52.528c0-1.657-1.343-3-3-3h-98c-1.657 0-3 1.343-3 3v52.528z" fill="#80d261"/></g><g><path d="m327 376.66h-30c-1.657 0-3 1.343-3 3v52.528h30v-52.528c0-1.657 1.343-3 3-3z" fill="#68ca44"/></g></g><g><path d="m207.947 184.606h-39c-8.284 0-15-6.716-15-15v-10h54z" fill="#fed2a4"/></g><g><g><path d="m229 159.606h-102.794c-1.657 0-3-1.343-3-3v-102.794c0-1.657 1.343-3 3-3h102.794c1.657 0 3 1.343 3 3v102.794c0 1.657-1.343 3-3 3z" fill="#faea5e"/></g><g><path d="m155 156.606v-102.794c0-1.657 1.343-3 3-3h-31.794c-1.657 0-3 1.343-3 3v102.794c0 1.657 1.343 3 3 3h31.794c-1.657 0-3-1.343-3-3z" fill="#ffd600"/></g><path d="m163.248 50.812v24c0 1.657 1.343 3 3 3h22.709c1.657 0 3-1.343 3-3v-24z" fill="#fff"/></g><g><g><path d="m219.5 381.188v-34.231c0-1.657-1.343-3-3-3h-59c-1.657 0-3 1.343-3 3v34.231z" fill="#9facba"/></g><g><path d="m188 343.957h-30.5c-1.657 0-3 1.343-3 3v34.231h30.5v-34.231c0-1.657 1.343-3 3-3z" fill="#8d9ca8"/></g><path d="m142.5 279.188h-113c-1.657 0-3 1.343-3 3v69c0 1.657 1.343 3 3 3h42v-28c0-1.657 1.343-3 3-3h23c1.657 0 3 1.343 3 3v28h42c1.657 0 3-1.343 3-3v-69c0-1.657-1.343-3-3-3z" fill="#596c76"/><g><path d="m57 351.188v-69c0-1.657 1.343-3 3-3h-30.5c-1.657 0-3 1.343-3 3v69c0 1.657 1.343 3 3 3h30.5c-1.657 0-3-1.344-3-3z" fill="#465a61"/></g><g><path d="m100.5 381.188v-55c0-1.657-1.343-3-3-3h-23c-1.657 0-3 1.343-3 3v55z" fill="#465a61"/></g><g><path d="m241 432.188v-52h-209.5c-2.761 0-5 2.239-5 5v47z" fill="#596c76"/></g><g><path d="m63 380.188h-31.5c-2.761 0-5 2.239-5 5v47h31.5v-47c0-2.762 2.239-5 5-5z" fill="#465a61"/></g></g><g><path d="m499.5 461.188h-487c-2.761 0-5-2.239-5-5v-20c0-2.761 2.239-5 5-5h487c2.761 0 5 2.239 5 5v20c0 2.761-2.239 5-5 5z" fill="#fed2a4"/></g><g><path d="m68 456.188v-20c0-2.761 2.239-5 5-5h-60.5c-2.761 0-5 2.239-5 5v20c0 2.761 2.239 5 5 5h60.5c-2.761 0-5-2.239-5-5z" fill="#ffbd86"/></g><g><path d="m329.075 165.751v-10.671c0-4.142-3.358-7.5-7.5-7.5s-7.5 3.358-7.5 7.5v10.671c0 4.142 3.358 7.5 7.5 7.5s7.5-3.357 7.5-7.5z"/><path d="m375.425 173.251c4.142 0 7.5-3.358 7.5-7.5v-10.671c0-4.142-3.358-7.5-7.5-7.5s-7.5 3.358-7.5 7.5v10.671c0 4.143 3.358 7.5 7.5 7.5z"/><path d="m373.741 209.022c2.929-2.929 2.929-7.678 0-10.606-2.929-2.929-7.678-2.929-10.606 0-8.069 8.069-21.199 8.069-29.269 0-2.929-2.929-7.678-2.929-10.606 0-2.929 2.929-2.929 7.678 0 10.606 6.959 6.959 16.1 10.438 25.241 10.438s18.281-3.479 25.24-10.438z"/><path d="m345.653 190.337h8.547c4.142 0 7.5-3.358 7.5-7.5s-3.358-7.5-7.5-7.5h-1.047v-7.688c0-4.142-3.358-7.5-7.5-7.5s-7.5 3.358-7.5 7.5v15.188c0 4.142 3.358 7.5 7.5 7.5z"/><path d="m190.754 95.249h-26.302c-4.142 0-7.5 3.358-7.5 7.5s3.358 7.5 7.5 7.5h26.302c4.142 0 7.5-3.358 7.5-7.5s-3.358-7.5-7.5-7.5z"/><path d="m159.5 414.875c4.142 0 7.5-3.358 7.5-7.5v-4.375c0-4.142-3.358-7.5-7.5-7.5s-7.5 3.358-7.5 7.5v4.375c0 4.143 3.358 7.5 7.5 7.5z"/><path d="m178.5 414.875c4.142 0 7.5-3.358 7.5-7.5v-4.375c0-4.142-3.358-7.5-7.5-7.5s-7.5 3.358-7.5 7.5v4.375c0 4.143 3.358 7.5 7.5 7.5z"/><path d="m197.5 414.875c4.142 0 7.5-3.358 7.5-7.5v-4.375c0-4.142-3.358-7.5-7.5-7.5s-7.5 3.358-7.5 7.5v4.375c0 4.143 3.358 7.5 7.5 7.5z"/><path d="m216.5 414.875c4.142 0 7.5-3.358 7.5-7.5v-4.375c0-4.142-3.358-7.5-7.5-7.5s-7.5 3.358-7.5 7.5v4.375c0 4.143 3.358 7.5 7.5 7.5z"/><path d="m448.754 379.624h-26.302c-4.142 0-7.5 3.358-7.5 7.5s3.358 7.5 7.5 7.5h26.302c4.142 0 7.5-3.358 7.5-7.5s-3.358-7.5-7.5-7.5z"/><path d="m333.429 409.773h25.143c4.142 0 7.5-3.358 7.5-7.5s-3.358-7.5-7.5-7.5h-25.143c-4.142 0-7.5 3.358-7.5 7.5s3.358 7.5 7.5 7.5z"/><path d="m499.5 423.688h-2v-21.688c0-4.142-3.358-7.5-7.5-7.5s-7.5 3.358-7.5 7.5v21.688h-77v-44.028c0-5.79-4.71-10.5-10.5-10.5h-6.294v-26.472h25.042v16.5c0 5.79 4.71 10.5 10.5 10.5h22.709c5.79 0 10.5-4.71 10.5-10.5v-16.5h25.043v24.312c0 4.142 3.358 7.5 7.5 7.5s7.5-3.358 7.5-7.5v-28.813c0-5.79-4.71-10.5-10.5-10.5h-13.5v-41.363c0-17.92-14.58-32.5-32.5-32.5h-46.64l-10.233-11.729c14.877-5.674 26.474-18.043 31.088-33.407h1.788c15.471 0 28.057-12.586 28.057-28.057v-7.657c0-7.979-3.353-15.185-8.718-20.298v-42.274c0-26.309-21.404-47.713-47.713-47.713h-28.874c-7.591-6.34-17.353-10.163-27.993-10.163h-58.604c-6.893 0-12.5 5.607-12.5 12.5v87.65c-5.365 5.114-8.718 12.32-8.718 20.298v7.657c0 15.471 12.586 28.057 28.057 28.057h1.788c4.615 15.364 16.212 27.733 31.088 33.407l-10.233 11.729h-87.193v-16.824c0-4.142-3.358-7.5-7.5-7.5s-7.5 3.358-7.5 7.5v19.324c0 6.893 5.607 12.5 12.5 12.5h62.603v65.863h-8.5c-6.893 0-12.5 5.607-12.5 12.5v76.5h-6.05v-113.416c0-9.649-7.851-17.5-17.5-17.5h-47c-4.136 0-7.5-3.365-7.5-7.5v-93.165h23.947v9.894c0 4.142 3.358 7.5 7.5 7.5s7.5-3.358 7.5-7.5v-17.394-11.335-6.165h13.553c5.79 0 10.5-4.71 10.5-10.5v-102.793c0-5.79-4.71-10.5-10.5-10.5h-102.794c-5.79 0-10.5 4.71-10.5 10.5v102.793c0 5.79 4.71 10.5 10.5 10.5h20.241v2.5c0 9.797 6.296 18.147 15.053 21.228v94.437c0 12.407 10.093 22.5 22.5 22.5h47c1.378 0 2.5 1.122 2.5 2.5v62.417h-6.5v-25.73c0-5.79-4.71-10.5-10.5-10.5h-59c-1.612 0-3.134.376-4.5 1.028v-55.297c0-5.79-4.71-10.5-10.5-10.5h-113c-5.79 0-10.5 4.71-10.5 10.5v69c0 5.79 4.71 10.5 10.5 10.5h34.5v11h-32.5c-6.893 0-12.5 5.607-12.5 12.5v38.5h-6.5c-6.893 0-12.5 5.607-12.5 12.5v20c0 6.893 5.607 12.5 12.5 12.5h90.5c4.142 0 7.5-3.358 7.5-7.5s-3.358-7.5-7.5-7.5h-88v-15h482v15h-359c-4.142 0-7.5 3.358-7.5 7.5s3.358 7.5 7.5 7.5h361.5c6.893 0 12.5-5.607 12.5-12.5v-20c0-6.894-5.607-12.501-12.5-12.501zm-57.042-69h-13.709v-12h13.709zm-21.008-85.864h19.55c9.649 0 17.5 7.851 17.5 17.5v41.363h-37.05zm-250.701-210.511h13.709v12h-13.709zm-40.043 93.793v-93.793h25.042v16.5c0 5.79 4.71 10.5 10.5 10.5h22.709c5.79 0 10.5-4.71 10.5-10.5v-16.5h25.043v93.793zm30.741 17.5v-2.5h39v10h-31.5c-4.136 0-7.5-3.364-7.5-7.5zm.553 181.851h50v21.23h-50zm-15 9.203v12.028h-39v-11h34.5c1.612 0 3.134-.376 4.5-1.028zm-113-13.972v-60h104v60h-30v-20.5c0-5.79-4.71-10.5-10.5-10.5h-23c-5.79 0-10.5 4.71-10.5 10.5v20.5zm59-16v42h-14v-42zm140.5 93h-199.5v-36h199.5zm196.561-250.714v7.657c0 7.068-5.649 12.828-12.667 13.037v-33.731c7.018.208 12.667 5.969 12.667 13.037zm-41.432-95.286c18.038 0 32.713 14.675 32.713 32.713v34.852c-1.289-.201-2.608-.308-3.949-.327v-5.738c0-15.164-12.336-27.5-27.5-27.5h-14.394v-15.424c0-6.639-1.494-12.934-4.152-18.576zm-109.023 115.98c-7.018-.209-12.667-5.969-12.667-13.037v-7.657c0-7.068 5.649-12.828 12.667-13.037zm0-54.48v5.739c-1.34.018-2.66.126-3.949.327v-77.729h56.104c15.847 0 28.739 12.892 28.739 28.739v15.424h-53.394c-15.163 0-27.5 12.336-27.5 27.5zm15 54.687v-54.687c0-6.893 5.607-12.5 12.5-12.5h82.787c6.893 0 12.5 5.607 12.5 12.5v54.687c0 20.175-16.413 36.588-36.588 36.588h-34.611c-20.174-.001-36.588-16.414-36.588-36.588zm35.711 64.536c-.099-.101-.154-.234-.154-.376v-12.594c.344.007.686.021 1.031.021h34.611c.345 0 .687-.015 1.031-.021v12.594c0 .142-.055.275-.154.376l-18.182 18.494zm1.867 23.294-18.634 13.976v-31.546l2.078-2.382c.658 2.684 2.009 5.157 3.993 7.174zm45.194-12.777c1.984-2.018 3.336-4.491 3.994-7.175l2.078 2.382v31.546l-18.634-13.976zm-86.828-.104h8v35.857c0 4.003 2.224 7.602 5.805 9.392 1.499.749 3.107 1.118 4.707 1.118 2.223 0 4.427-.713 6.289-2.11l27.712-20.785c1.623.988 3.485 1.527 5.438 1.527s3.814-.539 5.438-1.527l27.712 20.785c3.202 2.402 7.416 2.783 10.996.992 3.581-1.79 5.805-5.389 5.805-9.392v-35.857h8v58.863h-22.244c-4.561 0-8.441 2.929-9.887 7h-83.771zm-4.05 110.836v44.028h-16.95v-74h6v5.5c0 4.142 3.358 7.5 7.5 7.5s7.5-3.358 7.5-7.5v-5.5h83.156v19.472h-76.706c-5.79 0-10.5 4.71-10.5 10.5zm104 44.028h-89v-39.528h89z"/></g></g></svg>