<svg id="flat" height="512" viewBox="0 0 512 512" width="512" xmlns="http://www.w3.org/2000/svg"><path d="m144 160 7.80065-3.90032a14.8328 14.8328 0 0 0 8.19935-13.26686v-14.83282h-36.58361a19.41638 19.41638 0 0 0 -19.41639 19.41639 19.41651 19.41651 0 0 0 2.04984 8.68328l5.95016 11.90033h24z" fill="#b36f42"/><path d="m112 160 8-8a17.88853 17.88853 0 0 0 24 8v16a16 16 0 0 1 -16 16 16 16 0 0 1 -16-16z" fill="#ffceb6"/><path d="m232 240v24l-16 24h-32l-16-24v-24z" fill="#f7c04a"/><path d="m104 344.51a44.13248 44.13248 0 0 1 -9.67993 27.59009l-22.32007 27.89991v40l-8 8-40-40 11-15.3999 29-40.6001-21.40991-49.96a31.97186 31.97186 0 0 1 -2.59009-12.61007v-16.27h48v22.84007l12.84009 32.1001a44.40219 44.40219 0 0 1 3.15991 16.4099z" fill="#445496"/><path d="m96 264 30.05889-30.05889a29.25482 29.25482 0 0 0 2.71758-38.23916 29.25481 29.25481 0 0 0 -23.40387-11.70195 41.05365 41.05365 0 0 0 -36.7196 22.69391l-24.55548 49.111a38.81084 38.81084 0 0 0 -3.00052 8.19509z" fill="#ed6445"/><path d="m216 240v8h-24l-19.53 14.64014a46.783 46.783 0 0 1 -57.28-.89014l-.94-.75 24-32 13.75 11 15.57007-10.37988a33.48853 33.48853 0 0 1 42.23 4.17993z" fill="#ffceb6"/><path d="m184 288h32v96h-32z" fill="#f7dfa1"/><path d="m184 424v-40h48l24 16v24z" fill="#f7c04a"/><circle cx="216" cy="424" fill="#8796c4" r="16"/><path d="m216 448a24 24 0 1 1 24-24 24.0275 24.0275 0 0 1 -24 24zm0-32a8 8 0 1 0 8 8 8.00917 8.00917 0 0 0 -8-8z" fill="#56679c"/><path d="m296 384h192v40h-192z" fill="#b36f42"/><path d="m296 424h32v24h-32z" fill="#9e593c"/><path d="m456 424h32v24h-32z" fill="#9e593c"/><path d="m256 400h40v24h-40z" fill="#f7dfa1"/><path d="m296 304h96v80h-96z" fill="#f7c04a"/><path d="m336 312h16v24h-16z" fill="#f7dfa1"/><path d="m392 304h96v80h-96z" fill="#f7c04a"/><path d="m432 312h16v24h-16z" fill="#f7dfa1"/><path d="m296 224h96v80h-96z" fill="#f7c04a"/><path d="m336 232h16v24h-16z" fill="#f7dfa1"/><path d="m392 224h96v80h-96z" fill="#f7c04a"/><path d="m432 232h16v24h-16z" fill="#f7dfa1"/><path d="m296 144h96v80h-96z" fill="#f7c04a"/><path d="m336 152h16v24h-16z" fill="#f7dfa1"/><path d="m392 144h96v80h-96z" fill="#f7c04a"/><path d="m432 152h16v24h-16z" fill="#f7dfa1"/><path d="m296 64h96v80h-96z" fill="#f7c04a"/><path d="m336 64h16v24h-16z" fill="#f7dfa1"/><path d="m392 64h96v80h-96z" fill="#f7c04a"/><path d="m432 64h16v24h-16z" fill="#f7dfa1"/><path d="m152 416v-85.42968a32 32 0 0 0 -16.12355-27.78378l-39.87645-22.78654v-16h-54.903a38.81148 38.81148 0 0 0 -1.097 9.16244 38.81271 38.81271 0 0 0 19.96359 33.92841l52.03641 28.90915 8 88z" fill="#445496"/><rect fill="#2c3e91" height="47.666" rx="8" transform="matrix(.486 -.874 .874 .486 -237.005 234.54)" width="15.999" x="72.798" y="294.832"/><path d="m152 416-32 8v24h56v-16z" fill="#6d7eb3"/><path d="m138.25 229-24 32-26.25-21 24-32z" fill="#ed6445"/><rect fill="#de402f" height="33.616" rx="8" transform="matrix(.625 -.781 .781 .625 -123.66 179.71)" width="16.001" x="117.125" y="201.692"/><rect fill="#de402f" height="33.616" rx="8" transform="matrix(.625 -.781 .781 .625 -157.655 172.979)" width="16.001" x="93.125" y="233.692"/><path d="m72 400v40l-8 8-40-40 11-15.4z" fill="#6d7eb3"/><path d="m488 152v-16h-88v-72h-16v72h-88v16h88v64h-88v16h88v64h-88v16h88v72h16v-72h88v-16h-88v-64h88v-16h-88v-64z" fill="#f5a431"/></svg>